<?xml version="1.0" encoding="utf-8"?>
<!-- Svg Vector Icons : http://www.onlinewebfonts.com/icon -->
<!DOCTYPE svg PUBLIC "-//W3C//DTD SVG 1.1//EN" "http://www.w3.org/Graphics/SVG/1.1/DTD/svg11.dtd">
<svg version="1.1" xmlns="http://www.w3.org/2000/svg" xmlns:xlink="http://www.w3.org/1999/xlink" x="0px" y="0px" viewBox="0 0 1000 1000" enable-background="new 0 0 1000 1000" xml:space="preserve">
<metadata> Svg Vector Icons : http://www.onlinewebfonts.com/icon </metadata>
<g><path d="M990,976.9c-116.7,0-489.6,0-490,0c-0.3,0-373.2,0-490,0C10,805,351,697.7,351,697.7l22.8-50.7c4.8-13.4,5.3-70.9,5.3-70.9c-47.4-44.8-82.9-120.5-98.1-229.7C258.9,185.8,330.4,24.3,499,23.1v-0.1c0.4,0,0.7,0.1,1,0.1c0.4,0,0.7-0.1,1.1-0.1v0.1c168.6,1.2,240,162.6,217.9,323.1c-15.2,109.3-50.7,185-98.1,229.7c0,0,0.5,57.5,5.3,70.9l22.7,50.7C649,697.7,990,805,990,976.9z"/></g>
</svg>